<svg width="16" height="16" viewBox="0 0 16 16" fill="none" xmlns="http://www.w3.org/2000/svg">
<g filter="url(#filter0_di_5_10)">
<path fill-rule="evenodd" clip-rule="evenodd" d="M15.1667 7.1685C15.1667 3.64124 11.866 1 8.08333 1C4.30067 1 1 3.64124 1 7.1685C1 10.6958 4.30067 13.337 8.08333 13.337C8.51139 13.337 8.93116 13.304 9.33931 13.2405C10.2503 13.8306 11.3037 14.2154 12.435 14.3295C12.7219 14.3585 13.0001 14.2199 13.1531 13.9717C13.3062 13.7235 13.3077 13.4087 13.157 13.1591C12.9219 12.7697 12.7578 12.3317 12.6829 11.8626C14.1759 10.7522 15.1667 9.08087 15.1667 7.1685Z" fill="#E9FFC7"/>
</g>
<g filter="url(#filter1_i_5_10)">
<path d="M8.45979 4.94345L9.32843 4.0748C9.80317 3.60007 10.5729 3.60007 11.0476 4.0748C11.5224 4.54954 11.5224 5.31925 11.0476 5.79399L7.56914 9.27279C7.22638 9.61555 6.80361 9.86751 6.33904 10.0059L4.59831 10.5244L5.11684 8.78371C5.25523 8.31915 5.50719 7.89638 5.84995 7.55361L8.45979 4.94345ZM8.45979 4.94345L10.1703 6.65399" stroke="#80D432" stroke-linecap="round" stroke-linejoin="round"/>
</g>
<defs>
<filter id="filter0_di_5_10" x="0.333333" y="0.666667" width="15.5" height="14.6667" filterUnits="userSpaceOnUse" color-interpolation-filters="sRGB">
<feFlood flood-opacity="0" result="BackgroundImageFix"/>
<feColorMatrix in="SourceAlpha" type="matrix" values="0 0 0 0 0 0 0 0 0 0 0 0 0 0 0 0 0 0 127 0" result="hardAlpha"/>
<feOffset dy="0.333333"/>
<feGaussianBlur stdDeviation="0.333333"/>
<feComposite in2="hardAlpha" operator="out"/>
<feColorMatrix type="matrix" values="0 0 0 0 0.0313726 0 0 0 0 0.713726 0 0 0 0 0.0313726 0 0 0 0.4 0"/>
<feBlend mode="normal" in2="BackgroundImageFix" result="effect1_dropShadow_5_10"/>
<feBlend mode="normal" in="SourceGraphic" in2="effect1_dropShadow_5_10" result="shape"/>
<feColorMatrix in="SourceAlpha" type="matrix" values="0 0 0 0 0 0 0 0 0 0 0 0 0 0 0 0 0 0 127 0" result="hardAlpha"/>
<feOffset dx="0.166667" dy="0.333333"/>
<feGaussianBlur stdDeviation="0.325"/>
<feComposite in2="hardAlpha" operator="arithmetic" k2="-1" k3="1"/>
<feColorMatrix type="matrix" values="0 0 0 0 1 0 0 0 0 1 0 0 0 0 1 0 0 0 0.75 0"/>
<feBlend mode="normal" in2="shape" result="effect2_innerShadow_5_10"/>
</filter>
<filter id="filter1_i_5_10" x="4.0983" y="3.21875" width="7.80538" height="8.13903" filterUnits="userSpaceOnUse" color-interpolation-filters="sRGB">
<feFlood flood-opacity="0" result="BackgroundImageFix"/>
<feBlend mode="normal" in="SourceGraphic" in2="BackgroundImageFix" result="shape"/>
<feColorMatrix in="SourceAlpha" type="matrix" values="0 0 0 0 0 0 0 0 0 0 0 0 0 0 0 0 0 0 127 0" result="hardAlpha"/>
<feOffset dy="0.333333"/>
<feGaussianBlur stdDeviation="0.166667"/>
<feComposite in2="hardAlpha" operator="arithmetic" k2="-1" k3="1"/>
<feColorMatrix type="matrix" values="0 0 0 0 0.0309208 0 0 0 0 0.715007 0 0 0 0 0.0309208 0 0 0 0.3 0"/>
<feBlend mode="normal" in2="shape" result="effect1_innerShadow_5_10"/>
</filter>
</defs>
</svg>
