<svg width="60" height="60" viewBox="0 0 60 60" fill="none" xmlns="http://www.w3.org/2000/svg">
<rect width="60" height="60" rx="16" fill="url(#paint0_linear_1628_157437)"/>
<g filter="url(#filter0_di_1628_157437)">
<path d="M31.1717 13.3027C31.4991 13.3027 31.8179 13.2064 32.0891 13.0252C32.3616 12.8439 32.5728 12.5852 32.6978 12.2839C32.8228 11.9814 32.8553 11.6502 32.7916 11.329C32.7278 11.009 32.5703 10.7152 32.3403 10.484C32.1091 10.2527 31.8141 10.0952 31.4941 10.0315C31.1742 9.96773 30.8417 10.0015 30.5404 10.1265C30.2379 10.2515 29.9805 10.4627 29.7992 10.734C29.618 11.0052 29.5205 11.3252 29.5205 11.6515C29.5205 11.8689 29.563 12.0839 29.6455 12.2839C29.7292 12.4839 29.8505 12.6664 30.0042 12.8202C30.1567 12.9739 30.3392 13.0952 30.5404 13.1777C30.7404 13.2614 30.9554 13.3039 31.1717 13.3027Z" fill="#E0D5FF"/>
<path d="M19.0348 17.3688C19.266 17.1388 19.4235 16.8438 19.4872 16.5239C19.551 16.2039 19.5172 15.8714 19.3923 15.5701C19.2673 15.2676 19.056 15.0101 18.7848 14.8289C18.5135 14.6476 18.1936 14.5501 17.8673 14.5501C17.5411 14.5501 17.2211 14.6476 16.9499 14.8289C16.6786 15.0101 16.4662 15.2676 16.3412 15.5701C16.2162 15.8714 16.1837 16.2039 16.2474 16.5239C16.3112 16.8438 16.4687 17.1388 16.6999 17.3688C16.8524 17.5226 17.0349 17.6451 17.2349 17.7276C17.4361 17.8101 17.6498 17.8538 17.8673 17.8538C18.0836 17.8538 18.2986 17.8101 18.4998 17.7276C18.6998 17.6451 18.8823 17.5226 19.0348 17.3688Z" fill="#E0D5FF"/>
<path d="M13.3026 28.8274C13.3026 28.5011 13.2063 28.1824 13.0251 27.9099C12.8438 27.6386 12.5851 27.4274 12.2839 27.3024C11.9814 27.1774 11.6501 27.1449 11.3289 27.2086C11.0089 27.2724 10.7152 27.4286 10.484 27.6599C10.2527 27.8911 10.0952 28.1849 10.0315 28.5061C9.96774 28.8261 10.0015 29.1586 10.1265 29.4599C10.2515 29.7611 10.4627 30.0198 10.7339 30.2011C11.0052 30.3823 11.3252 30.4798 11.6514 30.4798C12.0901 30.4798 12.5101 30.3048 12.8188 29.9961C13.1288 29.6861 13.3026 29.2661 13.3026 28.8274Z" fill="#E0D5FF"/>
<path d="M17.3699 40.9771C17.1386 40.7459 16.8449 40.5884 16.5237 40.5246C16.2037 40.4609 15.8724 40.4946 15.5699 40.6196C15.2687 40.7446 15.01 40.9559 14.8287 41.2271C14.6475 41.4996 14.5513 41.8184 14.5513 42.1446C14.5513 42.4708 14.6475 42.7908 14.8287 43.0621C15.01 43.3346 15.2687 43.5458 15.5699 43.6708C15.8724 43.7958 16.2037 43.8283 16.5237 43.7646C16.8449 43.7008 17.1386 43.5433 17.3699 43.3133C17.5236 43.1596 17.6448 42.9771 17.7273 42.7771C17.8111 42.5771 17.8536 42.3621 17.8536 42.1446C17.8536 41.9284 17.8111 41.7134 17.7273 41.5134C17.6448 41.3121 17.5236 41.1309 17.3699 40.9771Z" fill="#E0D5FF"/>
<path d="M28.823 46.697C28.4968 46.697 28.1781 46.7933 27.9056 46.9758C27.6343 47.157 27.4231 47.4145 27.2981 47.717C27.1731 48.0182 27.1406 48.3507 27.2044 48.6707C27.2681 48.9907 27.4256 49.2857 27.6556 49.5157C27.8868 49.7469 28.1818 49.9044 28.5018 49.9682C28.8218 50.0319 29.1543 49.9994 29.4555 49.8745C29.7567 49.7495 30.0155 49.537 30.1967 49.2657C30.3779 48.9945 30.4754 48.6745 30.4754 48.3482C30.4742 47.9107 30.3004 47.4907 29.9905 47.1808C29.6817 46.872 29.2618 46.697 28.823 46.697Z" fill="#E0D5FF"/>
<path d="M40.9749 42.6371C40.7449 42.8671 40.5874 43.1621 40.5237 43.4821C40.4599 43.8033 40.4924 44.1346 40.6174 44.4358C40.7424 44.7383 40.9549 44.9958 41.2261 45.177C41.4974 45.3595 41.8161 45.4558 42.1436 45.4558C42.4698 45.4558 42.7898 45.3595 43.061 45.177C43.3323 44.9958 43.5435 44.7383 43.6685 44.4358C43.7935 44.1346 43.8273 43.8033 43.7635 43.4821C43.6998 43.1621 43.5423 42.8671 43.311 42.6371C43.1573 42.4833 42.9761 42.3621 42.7748 42.2784C42.5748 42.1959 42.3598 42.1534 42.1436 42.1534C41.9261 42.1534 41.7111 42.1959 41.5111 42.2784C41.3111 42.3621 41.1286 42.4833 40.9749 42.6371Z" fill="#E0D5FF"/>
<path d="M46.6971 31.1736C46.6971 31.5011 46.7946 31.8198 46.9758 32.0911C47.1571 32.3635 47.4158 32.5748 47.7171 32.6998C48.0183 32.8248 48.3508 32.8573 48.6708 32.7935C48.992 32.7298 49.2857 32.5723 49.517 32.3423C49.7482 32.1111 49.9045 31.8161 49.9682 31.4961C50.0319 31.1761 49.9994 30.8436 49.8745 30.5423C49.7495 30.2398 49.5382 29.9823 49.267 29.8011C48.9945 29.6199 48.6758 29.5224 48.3495 29.5224C47.9108 29.5224 47.4908 29.6961 47.1808 30.0061C46.8721 30.3161 46.6971 30.7361 46.6971 31.1736Z" fill="#E0D5FF"/>
<path d="M42.6361 19.0338C42.8661 19.2638 43.161 19.4213 43.481 19.485C43.8023 19.5488 44.1335 19.5163 44.4347 19.3913C44.7372 19.2663 44.9947 19.0551 45.1759 18.7826C45.3584 18.5113 45.4547 18.1926 45.4547 17.8651C45.4547 17.5388 45.3584 17.2201 45.1759 16.9476C44.9947 16.6764 44.7372 16.4651 44.4347 16.3401C44.1335 16.2151 43.8023 16.1826 43.481 16.2464C43.161 16.3101 42.8661 16.4664 42.6361 16.6976C42.4823 16.8513 42.3611 17.0326 42.2773 17.2338C42.1948 17.4338 42.1523 17.6488 42.1523 17.8651C42.1523 18.0826 42.1948 18.2976 42.2773 18.4976C42.3611 18.6976 42.4823 18.8801 42.6361 19.0338Z" fill="#E0D5FF"/>
<path d="M34.0728 17.9226C33.4715 18.2701 33.229 18.9963 33.1416 19.685C33.0653 20.285 32.8028 20.8463 32.3903 21.29C31.9791 21.7338 31.4379 22.0362 30.8454 22.1562C30.2517 22.275 29.6355 22.2062 29.0843 21.9575C28.5318 21.7075 28.0731 21.2925 27.7693 20.7675C27.4668 20.2438 27.3368 19.6375 27.3968 19.0351C27.4568 18.4326 27.7043 17.8651 28.1043 17.4101C28.5043 16.9563 29.0368 16.6389 29.6267 16.5039C30.2167 16.3689 30.8342 16.4214 31.3916 16.6564C32.0329 16.9238 32.7841 17.0726 33.3865 16.7289C33.9903 16.3851 34.2315 15.6551 34.319 14.9676C34.394 14.3664 34.6565 13.8052 35.0677 13.3614C35.4802 12.9177 36.0202 12.6139 36.6139 12.4939C37.2076 12.3739 37.8238 12.4439 38.375 12.6927C38.9275 12.9414 39.3875 13.3564 39.69 13.8814C39.9925 14.4051 40.1237 15.0114 40.0637 15.6139C40.0037 16.2164 39.7562 16.7851 39.3562 17.2388C38.9563 17.6926 38.4238 18.0101 37.8338 18.1463C37.2438 18.2813 36.6264 18.2276 36.0677 17.9938C35.4277 17.7276 34.6765 17.5776 34.0728 17.9226Z" fill="#E0D5FF"/>
<path d="M24.342 18.5763C24.1633 19.2476 24.5045 19.9338 24.9282 20.4825C25.2982 20.9613 25.5094 21.5438 25.5319 22.1475C25.5532 22.7525 25.3857 23.3475 25.0507 23.8512C24.7157 24.355 24.2308 24.7412 23.6658 24.9549C23.0996 25.1687 22.4808 25.1987 21.8971 25.0424C21.3134 24.8862 20.7922 24.5499 20.4097 24.0825C20.026 23.615 19.7997 23.0387 19.761 22.435C19.7235 21.8313 19.8747 21.2313 20.196 20.7188C20.5172 20.2063 20.9909 19.8075 21.5509 19.5788C22.1934 19.3138 22.8346 18.8913 23.0071 18.2201C23.1796 17.5476 22.8446 16.8614 22.4196 16.3126C22.0496 15.8339 21.8396 15.2526 21.8184 14.6476C21.7971 14.0439 21.9659 13.4477 22.3009 12.9439C22.6358 12.4402 23.1196 12.0552 23.6858 11.8414C24.252 11.629 24.8707 11.5977 25.4544 11.7552C26.0382 11.9114 26.5581 12.2477 26.9419 12.7164C27.3243 13.1839 27.5506 13.7602 27.5881 14.3639C27.6268 14.9676 27.4743 15.5676 27.1531 16.0801C26.8319 16.5926 26.3581 16.9913 25.7982 17.2201C25.162 17.4813 24.5232 17.9063 24.342 18.5763Z" fill="#E0D5FF"/>
<path d="M17.9186 25.9249C18.2661 26.5262 18.9948 26.7687 19.6822 26.8562C20.2835 26.9324 20.8447 27.1961 21.2884 27.6074C21.7309 28.0199 22.0334 28.5611 22.1534 29.1549C22.2721 29.7486 22.2021 30.3648 21.9521 30.9161C21.7021 31.4673 21.2859 31.9273 20.7622 32.2298C20.2372 32.5323 19.631 32.6623 19.0285 32.601C18.4261 32.5398 17.8586 32.2923 17.4049 31.8911C16.9511 31.4911 16.6336 30.9573 16.4999 30.3673C16.3649 29.7773 16.4187 29.1599 16.6549 28.6011C16.9224 27.9611 17.0699 27.2099 16.7274 26.6074C16.3837 26.0037 15.6537 25.7624 14.9637 25.6749C14.3625 25.5987 13.8013 25.3362 13.3576 24.9237C12.9151 24.5112 12.6126 23.97 12.4939 23.3762C12.3739 22.7825 12.4439 22.1662 12.6938 21.615C12.9438 21.0638 13.3601 20.6038 13.8838 20.3025C14.4088 20 15.015 19.87 15.6174 19.93C16.2199 19.9913 16.7874 20.2388 17.2411 20.64C17.6948 21.0413 18.0123 21.5738 18.1461 22.1637C18.2811 22.755 18.2273 23.3725 17.9911 23.93C17.7236 24.5699 17.5761 25.3212 17.9186 25.9249Z" fill="#E0D5FF"/>
<path d="M18.576 35.6585C19.2485 35.8372 19.9322 35.496 20.4834 35.0722C20.9609 34.7022 21.5434 34.491 22.1484 34.4685C22.7521 34.4473 23.3483 34.6147 23.852 34.9497C24.3557 35.2847 24.7407 35.7697 24.9545 36.3347C25.1682 36.901 25.1995 37.5197 25.0432 38.1034C24.887 38.6872 24.5507 39.2084 24.0833 39.5909C23.6145 39.9746 23.0383 40.2009 22.4346 40.2396C21.8321 40.2771 21.2309 40.1259 20.7184 39.8046C20.206 39.4834 19.8072 39.0097 19.5785 38.4497C19.3148 37.8072 18.8898 37.166 18.2211 36.9935C17.5511 36.821 16.8624 37.156 16.3137 37.5797C15.8349 37.9509 15.2525 38.1622 14.6475 38.1847C14.0425 38.2072 13.4463 38.0384 12.9413 37.7034C12.4376 37.3685 12.0514 36.8835 11.8376 36.3172C11.6227 35.751 11.5927 35.1322 11.7489 34.5473C11.9051 33.9635 12.2414 33.4423 12.7101 33.0585C13.1788 32.6748 13.755 32.4485 14.36 32.4098C14.9637 32.3723 15.5649 32.5248 16.0774 32.846C16.5899 33.1673 16.9886 33.6423 17.2174 34.2023C17.4824 34.841 17.9048 35.4772 18.576 35.6585Z" fill="#E0D5FF"/>
<path d="M25.9207 42.0796C26.5219 41.7321 26.7656 41.0034 26.8544 40.3159C26.9319 39.7159 27.1944 39.1547 27.6068 38.7122C28.0181 38.2697 28.5593 37.9672 29.1518 37.8484C29.7455 37.7297 30.3604 37.7997 30.9117 38.0497C31.4629 38.2984 31.9216 38.7147 32.2228 39.2384C32.5253 39.7634 32.6553 40.3684 32.5953 40.9696C32.5341 41.5721 32.2866 42.1396 31.8866 42.5933C31.4854 43.0471 30.9529 43.3633 30.3642 43.4971C29.7742 43.6321 29.1568 43.5783 28.5993 43.3433C27.9568 43.0758 27.2056 42.9283 26.6056 43.2708C26.0044 43.6146 25.7582 44.3446 25.6707 45.0345C25.5944 45.6345 25.3319 46.1958 24.9195 46.6383C24.507 47.0795 23.967 47.382 23.3733 47.5008C22.7808 47.6195 22.1659 47.5495 21.6146 47.2995C21.0634 47.0508 20.6047 46.6345 20.3035 46.1108C20.001 45.587 19.871 44.9821 19.931 44.3808C19.991 43.7783 20.2385 43.2108 20.6384 42.7571C21.0384 42.3034 21.5709 41.9871 22.1609 41.8521C22.7496 41.7171 23.3671 41.7696 23.9245 42.0046C24.5682 42.2734 25.3195 42.4271 25.9207 42.0796Z" fill="#E0D5FF"/>
<path d="M35.6552 41.4246C35.8364 40.7521 35.4952 40.0659 35.069 39.5172C34.6977 39.0384 34.4865 38.4559 34.464 37.8509C34.4427 37.246 34.6102 36.6497 34.9452 36.1447C35.2802 35.641 35.7652 35.2547 36.3314 35.041C36.8976 34.826 37.5163 34.796 38.1013 34.9522C38.6863 35.1085 39.2062 35.4447 39.59 35.9135C39.9737 36.3822 40.1999 36.9585 40.2387 37.5634C40.2762 38.1672 40.1237 38.7684 39.8025 39.2809C39.4812 39.7934 39.0063 40.1921 38.4463 40.4209C37.8038 40.6859 37.1651 41.1096 36.9901 41.7796C36.8164 42.4496 37.1501 43.1383 37.5776 43.6871C37.9476 44.1658 38.16 44.7483 38.1813 45.3533C38.2038 45.9583 38.0351 46.5545 37.7001 47.0583C37.3651 47.5632 36.8814 47.9495 36.3139 48.1632C35.7477 48.377 35.129 48.4082 34.544 48.252C33.9603 48.0945 33.439 47.7582 33.0553 47.2895C32.6716 46.822 32.4453 46.2445 32.4078 45.6408C32.3691 45.037 32.5216 44.4358 32.8428 43.9233C33.1641 43.4096 33.639 43.0108 34.199 42.7821C34.8402 42.5183 35.4764 42.0959 35.6552 41.4246Z" fill="#E0D5FF"/>
<path d="M42.0786 34.0773C41.7311 33.4773 41.0049 33.2335 40.3174 33.1435C39.7175 33.0673 39.1562 32.8048 38.7138 32.3935C38.27 31.9811 37.9676 31.4411 37.8488 30.8486C37.7288 30.2548 37.7988 29.6398 38.0475 29.0886C38.2963 28.5374 38.7125 28.0786 39.2362 27.7761C39.76 27.4736 40.3649 27.3436 40.9662 27.4024C41.5686 27.4624 42.1361 27.7099 42.5898 28.1099C43.0435 28.5086 43.361 29.0411 43.496 29.6311C43.6323 30.2198 43.5785 30.8373 43.3448 31.3948C43.0773 32.0373 42.9298 32.7885 43.2698 33.3898C43.611 33.9898 44.346 34.236 45.0334 34.3235C45.6334 34.3998 46.1946 34.6623 46.6371 35.0747C47.0796 35.486 47.3821 36.0272 47.5021 36.6197C47.6208 37.2122 47.5508 37.8284 47.3021 38.3797C47.0521 38.9309 46.6371 39.3897 46.1134 39.6909C45.5897 39.9934 44.9834 40.1234 44.3822 40.0634C43.7798 40.0034 43.2123 39.7559 42.7586 39.3559C42.3048 38.9559 41.9886 38.4234 41.8536 37.8347C41.7186 37.2447 41.7711 36.6285 42.0061 36.071C42.2736 35.4297 42.4261 34.6785 42.0786 34.0773Z" fill="#E0D5FF"/>
<path d="M41.4224 24.3412C40.7512 24.1625 40.0637 24.5037 39.515 24.9299C39.0362 25.3012 38.4538 25.5124 37.8488 25.5349C37.2438 25.5562 36.6476 25.3887 36.1439 25.0537C35.6389 24.7187 35.2527 24.2337 35.039 23.6675C34.8252 23.1012 34.794 22.4825 34.9515 21.8975C35.1077 21.3125 35.4439 20.7913 35.9114 20.4088C36.3801 20.025 36.9576 19.7975 37.5613 19.76C38.165 19.7213 38.7663 19.8738 39.2787 20.1963C39.7925 20.5175 40.1912 20.9913 40.4199 21.5525C40.6837 22.195 41.1061 22.8337 41.7786 23.0075C42.4498 23.1825 43.136 22.8475 43.6848 22.4212C44.1635 22.0512 44.746 21.8413 45.3509 21.82C45.9546 21.7975 46.5509 21.9662 47.0533 22.3012C47.5571 22.6375 47.942 23.1212 48.1558 23.6875C48.3695 24.2537 48.3995 24.8712 48.2433 25.4562C48.0858 26.0399 47.7495 26.5599 47.2821 26.9424C46.8146 27.3261 46.2371 27.5524 45.6347 27.5899C45.0309 27.6274 44.431 27.4749 43.9185 27.1536C43.406 26.8324 43.0073 26.3587 42.7786 25.7987C42.5161 25.1612 42.0923 24.5224 41.4224 24.3412Z" fill="#E0D5FF"/>
<path d="M29.9992 34.9547C32.7366 34.9547 34.9565 32.736 34.9565 29.9986C34.9565 27.2611 32.7366 25.0424 29.9992 25.0424C27.2619 25.0424 25.0432 27.2611 25.0432 29.9986C25.0432 32.736 27.2619 34.9547 29.9992 34.9547Z" fill="#E0D5FF"/>
</g>
<defs>
<filter id="filter0_di_1628_157437" x="9" y="9.5" width="42" height="42" filterUnits="userSpaceOnUse" color-interpolation-filters="sRGB">
<feFlood flood-opacity="0" result="BackgroundImageFix"/>
<feColorMatrix in="SourceAlpha" type="matrix" values="0 0 0 0 0 0 0 0 0 0 0 0 0 0 0 0 0 0 127 0" result="hardAlpha"/>
<feOffset dy="0.5"/>
<feGaussianBlur stdDeviation="0.5"/>
<feComposite in2="hardAlpha" operator="out"/>
<feColorMatrix type="matrix" values="0 0 0 0 0 0 0 0 0 0.0417643 0 0 0 0 0.313232 0 0 0 0.2 0"/>
<feBlend mode="normal" in2="BackgroundImageFix" result="effect1_dropShadow_1628_157437"/>
<feBlend mode="normal" in="SourceGraphic" in2="effect1_dropShadow_1628_157437" result="shape"/>
<feColorMatrix in="SourceAlpha" type="matrix" values="0 0 0 0 0 0 0 0 0 0 0 0 0 0 0 0 0 0 127 0" result="hardAlpha"/>
<feOffset dx="0.5" dy="1"/>
<feGaussianBlur stdDeviation="0.975"/>
<feComposite in2="hardAlpha" operator="arithmetic" k2="-1" k3="1"/>
<feColorMatrix type="matrix" values="0 0 0 0 1 0 0 0 0 1 0 0 0 0 1 0 0 0 0.45 0"/>
<feBlend mode="normal" in2="shape" result="effect2_innerShadow_1628_157437"/>
</filter>
<linearGradient id="paint0_linear_1628_157437" x1="30" y1="0" x2="30" y2="60" gradientUnits="userSpaceOnUse">
<stop stop-color="#9169FF"/>
<stop offset="1" stop-color="#582BD3"/>
</linearGradient>
</defs>
</svg>
