<svg width="306" height="210" viewBox="0 0 306 210" fill="none" xmlns="http://www.w3.org/2000/svg">
<rect x="151.124" y="0.174316" width="149.751" height="41.1815" rx="14.9751" fill="#AFF349"/>
<path d="M299.003 43.4819C294.394 41.0836 294.825 40.5627 288.074 41.1904L300.712 28.5059C299.834 34.0055 301.032 35.8494 303.371 37.6118C306.216 39.756 305.952 41.599 304.885 43.2083C303.79 44.858 301.527 44.795 299.003 43.4819Z" fill="#AFF349"/>
<rect x="0.125" y="58.8267" width="300.75" height="150.999" rx="14.9751" fill="#AFF349" fill-opacity="0.05"/>
<path fill-rule="evenodd" clip-rule="evenodd" d="M21.0656 80.0039C21.4311 80.3694 21.4311 80.962 21.0656 81.3275L18.6076 83.7855L21.0656 86.2435C21.4311 86.609 21.4311 87.2016 21.0656 87.5671C20.7001 87.9327 20.1075 87.9327 19.742 87.5671L16.6222 84.4473C16.2566 84.0818 16.2566 83.4892 16.6222 83.1237L19.742 80.0039C20.1075 79.6384 20.7001 79.6384 21.0656 80.0039Z" fill="#AFF349"/>
<path fill-rule="evenodd" clip-rule="evenodd" d="M29.1014 80.0039C28.7359 80.3694 28.7359 80.962 29.1014 81.3275L31.5594 83.7855L29.1014 86.2435C28.7359 86.609 28.7359 87.2016 29.1014 87.5671C29.4669 87.9327 30.0595 87.9327 30.425 87.5671L33.5448 84.4473C33.9104 84.0818 33.9104 83.4892 33.5448 83.1237L30.425 80.0039C30.0595 79.6384 29.4669 79.6384 29.1014 80.0039Z" fill="#AFF349"/>
<path fill-rule="evenodd" clip-rule="evenodd" d="M26.1518 76.3074C26.6635 76.3805 27.0191 76.8546 26.946 77.3663L25.0741 90.4695C25.001 90.9812 24.5269 91.3368 24.0152 91.2637C23.5035 91.1906 23.1479 90.7165 23.221 90.2048L25.0929 77.1016C25.166 76.5898 25.6401 76.2343 26.1518 76.3074Z" fill="#AFF349"/>
<rect x="260.941" y="68.8101" width="29.9502" height="29.9502" rx="9.9834" fill="#AFF349" fill-opacity="0.05"/>
<path d="M269.677 78.4594C269.677 76.9823 271.308 76.0871 272.554 76.8802L280.922 82.2057C282.078 82.9412 282.078 84.6286 280.922 85.3641L272.554 90.6897C271.308 91.4827 269.677 90.5875 269.677 89.1104V78.4594Z" fill="#AFF349"/>
<rect x="10.1084" y="108.744" width="202.164" height="9.9834" rx="4.9917" fill="#AFF349" fill-opacity="0.05"/>
<rect x="25.0835" y="128.71" width="175.957" height="9.9834" rx="4.9917" fill="#AFF349" fill-opacity="0.05"/>
<rect x="25.0835" y="148.677" width="137.272" height="9.9834" rx="4.9917" fill="#AFF349" fill-opacity="0.05"/>
<rect x="10.1084" y="168.644" width="48.6691" height="9.9834" rx="4.9917" fill="#AFF349" fill-opacity="0.05"/>
</svg>
