<svg width="84" height="142" viewBox="0 0 84 142" fill="none" xmlns="http://www.w3.org/2000/svg">
<path fill-rule="evenodd" clip-rule="evenodd" d="M57.1087 26.8048L57.0279 26.876C57.0251 26.8493 57.0219 26.8187 57.0185 26.7842C56.9851 26.7765 56.9554 26.7694 56.9296 26.7633L57.0097 26.6918C56.8389 24.8484 56.2746 15.2471 62.2169 8.71864C68.2703 2.06804 81.2647 2.96149 83.3678 3.1542L83.403 3.12276L83.6676 3.12897C83.6676 3.12897 83.4479 18.1876 75.4665 23.869C68.2783 28.9858 58.9014 27.2086 57.1087 26.8048Z" fill="white"/>
<path fill-rule="evenodd" clip-rule="evenodd" d="M42.0039 29.9478C42.0285 29.9477 42.0531 29.9477 42.0777 29.9477V29.9478C62.3912 29.9599 62.6076 30.8002 66.6004 46.3003L66.6004 46.3005C67.5286 49.9039 68.6609 54.2995 70.2973 59.6612C75.2501 75.89 76.1905 78.2592 77.2725 80.9854C78.0978 83.0646 79.0055 85.3514 81.8387 94.1534C88.2255 113.996 80.6668 139.845 42.0777 141.104V141.109C42.0531 141.108 42.0285 141.107 42.0039 141.107C41.9793 141.107 41.9547 141.108 41.9301 141.109V141.104C3.34093 139.845 -4.2177 113.996 2.16909 94.1534C5.00226 85.3514 5.90994 83.0646 6.73522 80.9854C7.81726 78.2592 8.75767 75.89 13.7105 59.6612C15.3468 54.2994 16.4792 49.9037 17.4074 46.3003C21.4001 30.8002 21.6166 29.9599 41.9301 29.9478V29.9477C41.9547 29.9477 41.9793 29.9477 42.0039 29.9478Z" fill="white"/>
</svg>
