<svg width="120" height="120" viewBox="0 0 120 120" fill="none" xmlns="http://www.w3.org/2000/svg">
<rect width="120" height="120" rx="32" fill="#0042C7"/>
<path d="M62.6694 94.2546C62.6694 95.2655 63.4837 96.0918 64.4942 96.062C66.3448 96.0075 68.1923 95.8412 70.0225 95.5615C75.0215 98.7439 80.8018 100.818 87.0102 101.434C88.5842 101.59 90.1109 100.843 90.9508 99.5046C91.7907 98.1664 91.7989 96.4686 90.9718 95.1225C89.6818 93.0228 88.7812 90.6605 88.3701 88.1313C96.5629 82.1433 102 73.1304 102 62.8177C102 42.8924 84.3619 30.3243 64.5129 29.59C63.4954 29.5523 62.6694 30.3813 62.6694 31.3995V94.2546Z" fill="#61CDFF"/>
<path d="M31.0606 90.5622C24.0641 90.5622 18.1276 86.4632 18.1276 79.6787C18.1276 73.4595 22.58 69.9966 29.5058 68.5832L41.2374 66.1096C41.2374 60.9506 38.9052 58.4771 34.5942 58.4771C30.3539 58.4771 28.163 60.3852 27.3857 63.8481L18.7637 63.2828C20.1771 55.8622 25.8309 50.9858 34.5942 50.9858C44.2763 50.9858 49.6473 56.7809 49.6473 66.675V80.032C49.6473 81.9402 50.3541 82.5056 52.0502 82.5056H54.029V89.7141C53.4636 89.8555 51.9795 89.9968 50.5661 89.9968C45.9017 89.9968 43.2162 87.8766 42.2975 84.131C40.6013 87.9473 36.2903 90.5622 31.0606 90.5622ZM32.1207 83.495C37.6331 83.495 41.2374 80.3147 41.2374 75.1557V72.5408L31.838 74.4489C28.3751 75.1557 26.8909 76.6398 26.8909 79.1133C26.8909 81.7988 28.6577 83.495 32.1207 83.495Z" fill="url(#paint0_linear_501_54422)"/>
<rect x="49.457" y="21" width="7.37448" height="77.7393" rx="1.84362" fill="#61CDFF"/>
<defs>
<linearGradient id="paint0_linear_501_54422" x1="51.2963" y1="64.7141" x2="14.7354" y2="64.7141" gradientUnits="userSpaceOnUse">
<stop stop-color="#61CDFF" stop-opacity="0"/>
<stop offset="0.54" stop-color="#61CDFF"/>
</linearGradient>
</defs>
</svg>
