<svg width="120" height="120" viewBox="0 0 120 120" fill="none" xmlns="http://www.w3.org/2000/svg">
<rect width="120" height="120" rx="32" fill="#005A4E"/>
<path fill-rule="evenodd" clip-rule="evenodd" d="M102 58.011C102 36.8475 82.196 21 59.5 21C36.804 21 17 36.8475 17 58.011C17 79.1745 36.804 95.022 59.5 95.022C62.0683 95.022 64.5869 94.8238 67.0358 94.443C72.5018 97.9838 78.8219 100.292 85.6102 100.977C87.3312 101.151 89.0005 100.319 89.9189 98.8302C90.8372 97.3413 90.8461 95.4523 89.9418 93.9545C88.5313 91.6183 87.5467 88.99 87.0971 86.1758C96.0551 79.5134 102 69.4852 102 58.011Z" fill="#1EFFCA"/>
<path d="M55.0199 75.6576C53.4007 75.4124 51.8893 76.5263 51.6442 78.1455C51.399 79.7647 52.5129 81.2761 54.1321 81.5213C55.8843 81.7865 57.6768 81.9238 59.4996 81.9238C61.3223 81.9238 63.1148 81.7865 64.867 81.5212C66.4862 81.2761 67.6001 79.7647 67.355 78.1455C67.1098 76.5263 65.5984 75.4124 63.9792 75.6576C62.5199 75.8786 61.0241 75.9934 59.4996 75.9934C57.975 75.9934 56.4792 75.8786 55.0199 75.6576Z" fill="#005A4E"/>
<path d="M66.5939 63.2174C65.6159 63.8195 64.9198 66.701 64.9198 67.8495C64.9198 68.4618 64.5354 69.0138 63.9464 69.1809C62.5331 69.5818 61.0414 69.7964 59.4996 69.7964C57.9578 69.7964 56.4662 69.5818 55.0528 69.1809C54.4638 69.0138 54.0795 68.4618 54.0795 67.8495C54.0795 66.701 53.3833 63.8195 52.4054 63.2174C48.5317 60.8325 45.9492 56.553 45.9492 51.6703C45.9492 44.1866 52.0159 38.1199 59.4996 38.1199C66.9833 38.1199 73.05 44.1866 73.05 51.6703C73.05 56.553 70.4675 60.8325 66.5939 63.2174Z" stroke="#005A4E" stroke-width="6" stroke-linecap="round" stroke-linejoin="round"/>
</svg>
