<svg width="120" height="120" viewBox="0 0 120 120" fill="none" xmlns="http://www.w3.org/2000/svg">
<rect width="120" height="120" rx="32" fill="#007889"/>
<path d="M88.4041 73.8827C94.596 72.2745 92.9805 76.721 91.5938 79.0585C89.9363 81.8525 87.9607 84.1866 84.8209 86.4975C85.2434 89.1142 86.1686 91.5582 87.4939 93.7306C88.3437 95.1233 88.3353 96.8798 87.4724 98.2643C86.6094 99.6488 85.0409 100.422 83.4238 100.261C77.0453 99.6237 71.1068 97.4773 65.9707 94.1848C63.6697 94.5389 61.3031 94.7232 58.8898 94.7232C44.6791 94.7232 33.067 88.925 26.3524 78.9399C24.8373 76.6869 26.7132 73.1884 29.338 73.8827C50.2506 79.4139 67.5691 79.294 88.4041 73.8827Z" fill="#A0F3FF"/>
<path d="M101 53.0536C101 45.1163 94.9673 38.6819 87.5255 38.6819C85.1205 38.6819 82.8626 39.3539 80.908 40.5316C80.304 40.8955 79.4705 40.5111 79.3863 39.8087C77.9795 28.0717 68.5847 19 57.2045 19C45.4717 19 35.8491 28.6428 34.9152 40.9077C34.8703 41.497 34.2851 41.9009 33.7124 41.7655C32.8752 41.5676 32.0057 41.4633 31.1136 41.4633C24.4235 41.4633 19 47.3299 19 54.5668C19 61.8037 24.8513 65.6825 31.1246 67.4564C46.4297 71.7842 68.1102 72.5041 86.2097 67.616C96.2406 64.9069 101 60.7206 101 53.0536Z" fill="#A0F3FF"/>
</svg>
