<svg width="383" height="250" viewBox="0 0 383 250" fill="none" xmlns="http://www.w3.org/2000/svg">
<g filter="url(#filter0_f_3009_2771)">
<path fill-rule="evenodd" clip-rule="evenodd" d="M34.1865 87.4479L161.851 187.695C178.889 201.075 202.866 201.075 219.904 187.695L348.375 86.8143C307.794 54.688 252.552 34.9243 191.679 34.9243C130.407 34.9243 74.8403 54.948 34.1865 87.4479Z" fill="url(#paint0_radial_3009_2771)" fill-opacity="0.4"/>
</g>
<rect x="41.375" y="210.261" width="300" height="38.7386" rx="14.527" fill="#14D2CB" fill-opacity="0.4"/>
<path fill-rule="evenodd" clip-rule="evenodd" d="M63.1236 233.294C62.1193 234.035 60.8777 234.473 59.5337 234.473C56.1908 234.473 53.4808 231.763 53.4808 228.42C53.4808 225.077 56.1908 222.367 59.5337 222.367C62.8767 222.367 65.5866 225.077 65.5866 228.42C65.5866 229.764 65.1487 231.006 64.4077 232.01L67.7419 235.344C68.0964 235.699 68.0964 236.274 67.7419 236.628C67.3873 236.983 66.8124 236.983 66.4579 236.628L63.1236 233.294ZM63.7708 228.42C63.7708 230.76 61.8738 232.657 59.5337 232.657C57.1937 232.657 55.2967 230.76 55.2967 228.42C55.2967 226.08 57.1937 224.183 59.5337 224.183C61.8738 224.183 63.7708 226.08 63.7708 228.42Z" fill="#14D2CB"/>
<rect x="80.1136" y="224.788" width="125.9" height="9.68465" rx="4.84232" fill="#14D2CB" fill-opacity="0.3"/>
<defs>
<filter id="filter0_f_3009_2771" x="0.186523" y="0.924316" width="382.189" height="230.806" filterUnits="userSpaceOnUse" color-interpolation-filters="sRGB">
<feFlood flood-opacity="0" result="BackgroundImageFix"/>
<feBlend mode="normal" in="SourceGraphic" in2="BackgroundImageFix" result="shape"/>
<feGaussianBlur stdDeviation="17" result="effect1_foregroundBlur_3009_2771"/>
</filter>
<radialGradient id="paint0_radial_3009_2771" cx="0" cy="0" r="1" gradientUnits="userSpaceOnUse" gradientTransform="translate(191.484 227.614) rotate(90) scale(192.689 220.261)">
<stop stop-color="#14D2CB"/>
<stop offset="1" stop-color="#14D2CB" stop-opacity="0"/>
</radialGradient>
</defs>
</svg>
